<svg width="100" height="100" viewBox="0 0 100 100" fill="none" xmlns="http://www.w3.org/2000/svg">
<path d="M100 100C100 94.5028 98.7067 89.0594 96.194 83.9807C93.6812 78.9019 89.9983 74.2873 85.3553 70.4002C80.7124 66.5131 75.2004 63.4296 69.1342 61.326C63.0679 59.2223 56.5661 58.1395 50 58.1395C43.4339 58.1395 36.9321 59.2223 30.8658 61.326C24.7995 63.4297 19.2876 66.5131 14.6447 70.4002C10.0017 74.2873 6.31876 78.9019 3.80602 83.9807C1.29329 89.0594 -5.74026e-07 94.5028 0 100L100 100Z" fill="white"/>
<path d="M100 73.334C97.4998 69.1974 94.1214 65.397 90 62.0791V0H100V73.334Z" fill="white"/>
<path d="M82 56.7686C78.8803 55.0686 75.5305 53.6126 72 52.4316V0H82V56.7686Z" fill="white"/>
<path d="M64 50.293C60.7287 49.6251 57.3815 49.185 54 48.9775V0H64V50.293Z" fill="white"/>
<path d="M46 48.9229C42.6231 49.0838 39.2758 49.4742 36 50.0938V0H46V48.9229Z" fill="white"/>
<path d="M28 52.1074C24.4793 53.2233 21.1299 54.6089 18 56.2363V0H28V52.1074Z" fill="white"/>
<path d="M10 61.2949C5.96386 64.3794 2.59147 67.9118 0 71.7666V0H10V61.2949Z" fill="white"/>
</svg>
